{
    "asset" : {
        "generator" : "Khronos glTF Blender I/O v3.2.43",
        "version" : "2.0"
    },
    "scene" : 0,
    "scenes" : [
        {
            "extras" : {
                "air_props" : {},
                "uuid" : "a2e48c16-966c-4155-831b-4d57fb720277",
                "assets reported" : {}
            },
            "name" : "Scene",
            "nodes" : [
                0
            ]
        }
    ],
    "nodes" : [
        {
            "extras" : {
                "sparkar_optimization" : {
                    "InvertedReducePercentage" : 0.0
                },
                "ant_landscape" : {},
                "spark_blender_addon" : 1
            },
            "mesh" : 0,
            "name" : "Torus.002"
        }
    ],
    "materials" : [
        {
            "doubleSided" : true,
            "name" : "Material.002",
            "pbrMetallicRoughness" : {
                "baseColorFactor" : [
                    0.4019778072834015,
                    0.040915075689554214,
                    0.04091520980000496,
                    1
                ],
                "metallicFactor" : 0.9765625,
                "roughnessFactor" : 0.4000000059604645
            }
        },
        {
            "alphaMode" : "BLEND",
            "doubleSided" : true,
            "name" : "MATERIAL_transparente",
            "pbrMetallicRoughness" : {
                "baseColorFactor" : [
                    0.4019778072834015,
                    0.040915075689554214,
                    0.04091520980000496,
                    0.20000000298023224
                ],
                "roughnessFactor" : 0.25
            }
        },
        {
            "alphaMode" : "BLEND",
            "doubleSided" : true,
            "name" : "Material.011",
            "pbrMetallicRoughness" : {
                "baseColorFactor" : [
                    0.4019778072834015,
                    0.040915075689554214,
                    0.04091520980000496,
                    0.3499998152256012
                ],
                "roughnessFactor" : 0.3515748381614685
            }
        },
        {
            "doubleSided" : true,
            "name" : "Material.019",
            "pbrMetallicRoughness" : {
                "baseColorFactor" : [
                    0.4019778072834015,
                    0.040915075689554214,
                    0.04091520980000496,
                    1
                ],
                "metallicFactor" : 0.9765625,
                "roughnessFactor" : 0.4000000059604645
            }
        },
        {
            "doubleSided" : true,
            "name" : "Material.023",
            "pbrMetallicRoughness" : {
                "baseColorFactor" : [
                    0.4019778072834015,
                    0.040915075689554214,
                    0.04091520980000496,
                    1
                ],
                "metallicFactor" : 0.9765625,
                "roughnessFactor" : 0.4000000059604645
            }
        }
    ],
    "meshes" : [
        {
            "name" : "Torus.008",
            "primitives" : [
                {
                    "attributes" : {
                        "POSITION" : 0,
                        "NORMAL" : 1,
                        "TEXCOORD_0" : 2
                    },
                    "indices" : 3,
                    "material" : 0
                },
                {
                    "attributes" : {
                        "POSITION" : 4,
                        "NORMAL" : 5,
                        "TEXCOORD_0" : 6
                    },
                    "indices" : 7,
                    "material" : 1
                },
                {
                    "attributes" : {
                        "POSITION" : 8,
                        "NORMAL" : 9,
                        "TEXCOORD_0" : 10
                    },
                    "indices" : 11,
                    "material" : 2
                },
                {
                    "attributes" : {
                        "POSITION" : 12,
                        "NORMAL" : 13,
                        "TEXCOORD_0" : 14
                    },
                    "indices" : 15,
                    "material" : 3
                },
                {
                    "attributes" : {
                        "POSITION" : 16,
                        "NORMAL" : 17,
                        "TEXCOORD_0" : 18
                    },
                    "indices" : 19,
                    "material" : 4
                }
            ]
        }
    ],
    "accessors" : [
        {
            "bufferView" : 0,
            "componentType" : 5126,
            "count" : 7682,
            "max" : [
                0.13195212185382843,
                0.8999999761581421,
                0.08476738631725311
            ],
            "min" : [
                -0.13189224898815155,
                3.0752085322660605e-09,
                -0.13398563861846924
            ],
            "type" : "VEC3"
        },
        {
            "bufferView" : 1,
            "componentType" : 5126,
            "count" : 7682,
            "type" : "VEC3"
        },
        {
            "bufferView" : 2,
            "componentType" : 5126,
            "count" : 7682,
            "type" : "VEC2"
        },
        {
            "bufferView" : 3,
            "componentType" : 5123,
            "count" : 35364,
            "type" : "SCALAR"
        },
        {
            "bufferView" : 4,
            "componentType" : 5126,
            "count" : 1766,
            "max" : [
                0.14423498511314392,
                0.7558887004852295,
                0.14164716005325317
            ],
            "min" : [
                -0.14423498511314392,
                0.6875006556510925,
                -0.14164714515209198
            ],
            "type" : "VEC3"
        },
        {
            "bufferView" : 5,
            "componentType" : 5126,
            "count" : 1766,
            "type" : "VEC3"
        },
        {
            "bufferView" : 6,
            "componentType" : 5126,
            "count" : 1766,
            "type" : "VEC2"
        },
        {
            "bufferView" : 7,
            "componentType" : 5123,
            "count" : 9339,
            "type" : "SCALAR"
        },
        {
            "bufferView" : 8,
            "componentType" : 5126,
            "count" : 197,
            "max" : [
                0.027572933584451675,
                0.7481173872947693,
                0.13390399515628815
            ],
            "min" : [
                -0.02515496127307415,
                0.6952722072601318,
                0.08117567747831345
            ],
            "type" : "VEC3"
        },
        {
            "bufferView" : 9,
            "componentType" : 5126,
            "count" : 197,
            "type" : "VEC3"
        },
        {
            "bufferView" : 10,
            "componentType" : 5126,
            "count" : 197,
            "type" : "VEC2"
        },
        {
            "bufferView" : 11,
            "componentType" : 5123,
            "count" : 1029,
            "type" : "SCALAR"
        },
        {
            "bufferView" : 12,
            "componentType" : 5126,
            "count" : 100,
            "max" : [
                0.10999992489814758,
                0.7481172680854797,
                0.02645058184862137
            ],
            "min" : [
                0.08358186483383179,
                0.6951462626457214,
                -0.026450568810105324
            ],
            "type" : "VEC3"
        },
        {
            "bufferView" : 13,
            "componentType" : 5126,
            "count" : 100,
            "type" : "VEC3"
        },
        {
            "bufferView" : 14,
            "componentType" : 5126,
            "count" : 100,
            "type" : "VEC2"
        },
        {
            "bufferView" : 15,
            "componentType" : 5123,
            "count" : 555,
            "type" : "SCALAR"
        },
        {
            "bufferView" : 16,
            "componentType" : 5126,
            "count" : 112,
            "max" : [
                0.09378660470247269,
                0.7440851330757141,
                0.08502193540334702
            ],
            "min" : [
                0.06588499248027802,
                0.699493944644928,
                0.07631663978099823
            ],
            "type" : "VEC3"
        },
        {
            "bufferView" : 17,
            "componentType" : 5126,
            "count" : 112,
            "type" : "VEC3"
        },
        {
            "bufferView" : 18,
            "componentType" : 5126,
            "count" : 112,
            "type" : "VEC2"
        },
        {
            "bufferView" : 19,
            "componentType" : 5123,
            "count" : 504,
            "type" : "SCALAR"
        }
    ],
    "bufferViews" : [
        {
            "buffer" : 0,
            "byteLength" : 92184,
            "byteOffset" : 0
        },
        {
            "buffer" : 0,
            "byteLength" : 92184,
            "byteOffset" : 92184
        },
        {
            "buffer" : 0,
            "byteLength" : 61456,
            "byteOffset" : 184368
        },
        {
            "buffer" : 0,
            "byteLength" : 70728,
            "byteOffset" : 245824
        },
        {
            "buffer" : 0,
            "byteLength" : 21192,
            "byteOffset" : 316552
        },
        {
            "buffer" : 0,
            "byteLength" : 21192,
            "byteOffset" : 337744
        },
        {
            "buffer" : 0,
            "byteLength" : 14128,
            "byteOffset" : 358936
        },
        {
            "buffer" : 0,
            "byteLength" : 18678,
            "byteOffset" : 373064
        },
        {
            "buffer" : 0,
            "byteLength" : 2364,
            "byteOffset" : 391744
        },
        {
            "buffer" : 0,
            "byteLength" : 2364,
            "byteOffset" : 394108
        },
        {
            "buffer" : 0,
            "byteLength" : 1576,
            "byteOffset" : 396472
        },
        {
            "buffer" : 0,
            "byteLength" : 2058,
            "byteOffset" : 398048
        },
        {
            "buffer" : 0,
            "byteLength" : 1200,
            "byteOffset" : 400108
        },
        {
            "buffer" : 0,
            "byteLength" : 1200,
            "byteOffset" : 401308
        },
        {
            "buffer" : 0,
            "byteLength" : 800,
            "byteOffset" : 402508
        },
        {
            "buffer" : 0,
            "byteLength" : 1110,
            "byteOffset" : 403308
        },
        {
            "buffer" : 0,
            "byteLength" : 1344,
            "byteOffset" : 404420
        },
        {
            "buffer" : 0,
            "byteLength" : 1344,
            "byteOffset" : 405764
        },
        {
            "buffer" : 0,
            "byteLength" : 896,
            "byteOffset" : 407108
        },
        {
            "buffer" : 0,
            "byteLength" : 1008,
            "byteOffset" : 408004
        }
    ],
    "buffers" : [
        {
            "byteLength" : 409012,
            "uri" : "data:application/octet-stream;base64,"
        }
    ]
}
