{
    "asset" : {
        "generator" : "Khronos glTF Blender I/O v3.2.43",
        "version" : "2.0"
    },
    "scene" : 0,
    "scenes" : [
        {
            "extras" : {
                "air_props" : {},
                "uuid" : "beef3e1d-67ea-4ca3-8a6c-729c1fe4b64f",
                "assets reported" : {}
            },
            "name" : "Scene",
            "nodes" : [
                0
            ]
        }
    ],
    "nodes" : [
        {
            "extras" : {
                "sparkar_optimization" : {
                    "InvertedReducePercentage" : 0.0
                },
                "ant_landscape" : {},
                "spark_blender_addon" : 1
            },
            "mesh" : 0,
            "name" : "Plane"
        }
    ],
    "materials" : [
        {
            "doubleSided" : true,
            "name" : "Material.001",
            "pbrMetallicRoughness" : {
                "baseColorFactor" : [
                    1,
                    0.702725350856781,
                    0.12400496006011963,
                    1
                ],
                "metallicFactor" : 0.9765625,
                "roughnessFactor" : 0.2370370477437973
            }
        },
        {
            "doubleSided" : true,
            "name" : "Material.003",
            "pbrMetallicRoughness" : {
                "baseColorFactor" : [
                    1,
                    0.702725350856781,
                    0.12400496006011963,
                    1
                ],
                "metallicFactor" : 0.9765625,
                "roughnessFactor" : 0.2370370477437973
            }
        }
    ],
    "meshes" : [
        {
            "name" : "Plane",
            "primitives" : [
                {
                    "attributes" : {
                        "POSITION" : 0,
                        "NORMAL" : 1,
                        "TEXCOORD_0" : 2
                    },
                    "indices" : 3,
                    "material" : 0
                },
                {
                    "attributes" : {
                        "POSITION" : 4,
                        "NORMAL" : 5,
                        "TEXCOORD_0" : 6
                    },
                    "indices" : 7,
                    "material" : 1
                }
            ]
        }
    ],
    "accessors" : [
        {
            "bufferView" : 0,
            "componentType" : 5126,
            "count" : 4814,
            "max" : [
                0.07648743689060211,
                0.8942334055900574,
                0.06304161250591278
            ],
            "min" : [
                -0.06724400818347931,
                0.009245184250175953,
                -0.03278275579214096
            ],
            "type" : "VEC3"
        },
        {
            "bufferView" : 1,
            "componentType" : 5126,
            "count" : 4814,
            "type" : "VEC3"
        },
        {
            "bufferView" : 2,
            "componentType" : 5126,
            "count" : 4814,
            "type" : "VEC2"
        },
        {
            "bufferView" : 3,
            "componentType" : 5123,
            "count" : 28788,
            "type" : "SCALAR"
        },
        {
            "bufferView" : 4,
            "componentType" : 5126,
            "count" : 3566,
            "max" : [
                0.0922434851527214,
                0.8999999165534973,
                0.08375252038240433
            ],
            "min" : [
                -0.0922435000538826,
                -3.4416297589601186e-10,
                -0.08375252783298492
            ],
            "type" : "VEC3"
        },
        {
            "bufferView" : 5,
            "componentType" : 5126,
            "count" : 3566,
            "type" : "VEC3"
        },
        {
            "bufferView" : 6,
            "componentType" : 5126,
            "count" : 3566,
            "type" : "VEC2"
        },
        {
            "bufferView" : 7,
            "componentType" : 5123,
            "count" : 16851,
            "type" : "SCALAR"
        }
    ],
    "bufferViews" : [
        {
            "buffer" : 0,
            "byteLength" : 57768,
            "byteOffset" : 0
        },
        {
            "buffer" : 0,
            "byteLength" : 57768,
            "byteOffset" : 57768
        },
        {
            "buffer" : 0,
            "byteLength" : 38512,
            "byteOffset" : 115536
        },
        {
            "buffer" : 0,
            "byteLength" : 57576,
            "byteOffset" : 154048
        },
        {
            "buffer" : 0,
            "byteLength" : 42792,
            "byteOffset" : 211624
        },
        {
            "buffer" : 0,
            "byteLength" : 42792,
            "byteOffset" : 254416
        },
        {
            "buffer" : 0,
            "byteLength" : 28528,
            "byteOffset" : 297208
        },
        {
            "buffer" : 0,
            "byteLength" : 33702,
            "byteOffset" : 325736
        }
    ],
    "buffers" : [
        {
            "byteLength" : 359440,
            "uri" : "data:application/octet-stream;base64,"
        }
    ]
}
