{
    "asset" : {
        "generator" : "Khronos glTF Blender I/O v3.2.43",
        "version" : "2.0"
    },
    "scene" : 0,
    "scenes" : [
        {
            "extras" : {
                "air_props" : {},
                "uuid" : "41c8ebe4-d3e9-4f8a-8856-cf49763bf46a",
                "assets reported" : {}
            },
            "name" : "Scene",
            "nodes" : [
                0
            ]
        }
    ],
    "nodes" : [
        {
            "extras" : {
                "sparkar_optimization" : {
                    "InvertedReducePercentage" : 0.0
                },
                "ant_landscape" : {},
                "spark_blender_addon" : 1
            },
            "mesh" : 0,
            "name" : "Cube.002"
        }
    ],
    "materials" : [
        {
            "doubleSided" : true,
            "name" : "Material.002",
            "pbrMetallicRoughness" : {
                "roughnessFactor" : 0
            }
        }
    ],
    "meshes" : [
        {
            "name" : "Cube.001",
            "primitives" : [
                {
                    "attributes" : {
                        "POSITION" : 0,
                        "NORMAL" : 1,
                        "TEXCOORD_0" : 2
                    },
                    "indices" : 3,
                    "material" : 0
                }
            ]
        }
    ],
    "accessors" : [
        {
            "bufferView" : 0,
            "componentType" : 5126,
            "count" : 5942,
            "max" : [
                0.1102590560913086,
                0.8999999761581421,
                0.2591882348060608
            ],
            "min" : [
                -0.1102590560913086,
                0,
                -0.2591882348060608
            ],
            "type" : "VEC3"
        },
        {
            "bufferView" : 1,
            "componentType" : 5126,
            "count" : 5942,
            "type" : "VEC3"
        },
        {
            "bufferView" : 2,
            "componentType" : 5126,
            "count" : 5942,
            "type" : "VEC2"
        },
        {
            "bufferView" : 3,
            "componentType" : 5123,
            "count" : 28368,
            "type" : "SCALAR"
        }
    ],
    "bufferViews" : [
        {
            "buffer" : 0,
            "byteLength" : 71304,
            "byteOffset" : 0
        },
        {
            "buffer" : 0,
            "byteLength" : 71304,
            "byteOffset" : 71304
        },
        {
            "buffer" : 0,
            "byteLength" : 47536,
            "byteOffset" : 142608
        },
        {
            "buffer" : 0,
            "byteLength" : 56736,
            "byteOffset" : 190144
        }
    ],
    "buffers" : [
        {
            "byteLength" : 246880,
            "uri" : "data:application/octet-stream;base64,"
        }
    ]
}
